<svg width="20" height="20" viewBox="0 0 20 20" fill="none" xmlns="http://www.w3.org/2000/svg">
<path d="M16.8729 0.993343L17.0581 0.808153C17.6473 0.218897 18.6027 0.218897 19.192 0.808153C19.7812 1.39741 19.7812 2.35278 19.192 2.94204L19.0068 3.12723C19.6644 3.86347 19.6399 4.99414 18.9331 5.70092L6.06696 18.567C5.98686 18.6471 5.88649 18.704 5.7766 18.7314L0.776598 19.9814C0.563614 20.0347 0.338309 19.9723 0.183072 19.817C0.0278338 19.6618 -0.0345719 19.4365 0.0186742 19.2235L1.26867 14.2235C1.29615 14.1136 1.35297 14.0133 1.43307 13.9332L13.4847 1.88157C13.2407 1.70958 12.9013 1.7327 12.6831 1.95092L8.56696 6.06704C8.32288 6.31111 7.92715 6.31111 7.68307 6.06704C7.43899 5.82296 7.43899 5.42723 7.68307 5.18315L11.7992 1.06704C12.5067 0.35957 13.6388 0.33564 14.375 0.99525C15.0847 0.359368 16.1624 0.358733 16.8729 0.993343Z" fill="#259F46"/>
</svg>
