<svg width="29" height="29" viewBox="0 0 29 29" fill="none" xmlns="http://www.w3.org/2000/svg">
<path fill-rule="evenodd" clip-rule="evenodd" d="M18.125 22.6562C18.125 23.1568 17.7193 23.5625 17.2187 23.5625L2.71875 23.5625C2.21824 23.5625 1.8125 23.1568 1.8125 22.6562L1.8125 6.34375C1.8125 5.84324 2.21824 5.4375 2.71875 5.4375L17.2188 5.4375C17.7193 5.4375 18.125 5.84324 18.125 6.34375L18.125 9.96875C18.125 10.4693 18.5307 10.875 19.0313 10.875C19.5318 10.875 19.9375 10.4693 19.9375 9.96875L19.9375 6.34375C19.9375 4.84223 18.7203 3.625 17.2188 3.625L2.71875 3.625C1.21723 3.625 8.97516e-07 4.84223 8.31882e-07 6.34375L1.1884e-07 22.6562C5.32066e-08 24.1578 1.21723 25.375 2.71875 25.375L17.2187 25.375C18.7203 25.375 19.9375 24.1578 19.9375 22.6562L19.9375 19.0312C19.9375 18.5307 19.5318 18.125 19.0313 18.125C18.5307 18.125 18.125 18.5307 18.125 19.0312L18.125 22.6562Z" fill="black"/>
<path fill-rule="evenodd" clip-rule="evenodd" d="M28.7346 15.1408C29.0885 14.7869 29.0885 14.2131 28.7346 13.8592L23.2971 8.42168C22.9432 8.06777 22.3693 8.06777 22.0154 8.42168C21.6615 8.7756 21.6615 9.3494 22.0154 9.70332L25.9059 13.5937L9.96875 13.5937C9.46824 13.5937 9.0625 13.9995 9.0625 14.5C9.0625 15.0005 9.46824 15.4062 9.96875 15.4062L25.9059 15.4062L22.0154 19.2967C21.6615 19.6506 21.6615 20.2244 22.0154 20.5783C22.3693 20.9322 22.9432 20.9322 23.2971 20.5783L28.7346 15.1408Z" fill="black"/>
</svg>
