<svg width="21" height="20" viewBox="0 0 21 20" fill="none" xmlns="http://www.w3.org/2000/svg">
<path d="M3.625 1.25C2.93464 1.25 2.375 1.80964 2.375 2.5V3.75C2.375 4.44036 2.93464 5 3.625 5H4.25V16.25C4.25 17.6307 5.36929 18.75 6.75 18.75H14.25C15.6307 18.75 16.75 17.6307 16.75 16.25V5H17.375C18.0654 5 18.625 4.44036 18.625 3.75V2.5C18.625 1.80964 18.0654 1.25 17.375 1.25H13C13 0.559644 12.4404 0 11.75 0H9.25C8.55964 0 8 0.559644 8 1.25H3.625ZM7.375 6.25C7.72018 6.25 8 6.52982 8 6.875V15.625C8 15.9702 7.72018 16.25 7.375 16.25C7.02982 16.25 6.75 15.9702 6.75 15.625L6.75 6.875C6.75 6.52982 7.02982 6.25 7.375 6.25ZM10.5 6.25C10.8452 6.25 11.125 6.52982 11.125 6.875V15.625C11.125 15.9702 10.8452 16.25 10.5 16.25C10.1548 16.25 9.875 15.9702 9.875 15.625V6.875C9.875 6.52982 10.1548 6.25 10.5 6.25ZM14.25 6.875V15.625C14.25 15.9702 13.9702 16.25 13.625 16.25C13.2798 16.25 13 15.9702 13 15.625V6.875C13 6.52982 13.2798 6.25 13.625 6.25C13.9702 6.25 14.25 6.52982 14.25 6.875Z" fill="#6A6A6A"/>
</svg>
