<svg width="17" height="16" viewBox="0 0 17 16" fill="none" xmlns="http://www.w3.org/2000/svg">
<path d="M11.1628 2C11.1628 1.44772 11.6122 1 12.1666 1H14.1744C14.7288 1 15.1783 1.44772 15.1783 2V14H15.6802C15.9574 14 16.1821 14.2239 16.1821 14.5C16.1821 14.7761 15.9574 15 15.6802 15H0.622055C0.344842 15 0.120117 14.7761 0.120117 14.5C0.120117 14.2239 0.344842 14 0.622055 14H1.12399V11C1.12399 10.4477 1.57344 10 2.12787 10H4.13562C4.69005 10 5.1395 10.4477 5.1395 11V14H6.14337V7C6.14337 6.44772 6.59282 6 7.14725 6H9.155C9.70943 6 10.1589 6.44772 10.1589 7V14H11.1628V2ZM12.1666 14H14.1744V2H12.1666V14ZM9.155 14V7H7.14725V14H9.155ZM4.13562 14V11H2.12787V14H4.13562Z" fill="#2D2D2D"/>
</svg>
