<svg width="29" height="29" viewBox="0 0 29 29" fill="none" xmlns="http://www.w3.org/2000/svg">
<path d="M14.5 8.61646C13.7273 8.61646 12.9622 8.76864 12.2483 9.06433C11.5345 9.36001 10.8859 9.79341 10.3395 10.3398C9.79316 10.8861 9.35977 11.5347 9.06408 12.2486C8.7684 12.9624 8.61621 13.7275 8.61621 14.5002C8.61621 15.2729 8.7684 16.038 9.06408 16.7518C9.35977 17.4657 9.79316 18.1143 10.3395 18.6606C10.8859 19.207 11.5345 19.6404 12.2483 19.9361C12.9622 20.2318 13.7273 20.3839 14.5 20.3839C16.0604 20.3839 17.557 19.764 18.6604 18.6606C19.7638 17.5572 20.3837 16.0607 20.3837 14.5002C20.3837 12.9397 19.7638 11.4432 18.6604 10.3398C17.557 9.23635 16.0604 8.61646 14.5 8.61646ZM10.4288 14.5002C10.4288 13.4205 10.8577 12.385 11.6212 11.6215C12.3847 10.858 13.4202 10.4291 14.5 10.4291C15.5797 10.4291 16.6152 10.858 17.3787 11.6215C18.1422 12.385 18.5711 13.4205 18.5711 14.5002C18.5711 15.5799 18.1422 16.6154 17.3787 17.3789C16.6152 18.1424 15.5797 18.5713 14.5 18.5713C13.4202 18.5713 12.3847 18.1424 11.6212 17.3789C10.8577 16.6154 10.4288 15.5799 10.4288 14.5002Z" fill="black"/>
<path d="M17.7555 2.43343C16.8002 -0.811144 12.1998 -0.811144 11.2445 2.43343L11.0742 3.01166C11.0075 3.23815 10.8909 3.44684 10.7331 3.62243C10.5752 3.79803 10.3801 3.93607 10.1619 4.02645C9.94382 4.11683 9.70823 4.15725 9.47245 4.14475C9.23667 4.13225 9.00668 4.06715 8.79933 3.95422L8.27005 3.6642C5.29736 2.04735 2.04735 5.29918 3.66601 8.27005L3.95422 8.79933C4.06715 9.00668 4.13225 9.23667 4.14475 9.47245C4.15725 9.70823 4.11683 9.94382 4.02645 10.1619C3.93607 10.3801 3.79803 10.5752 3.62243 10.7331C3.44684 10.8909 3.23815 11.0075 3.01166 11.0742L2.43343 11.2445C-0.811144 12.1998 -0.811144 16.8002 2.43343 17.7555L3.01166 17.9258C3.23815 17.9926 3.44684 18.1091 3.62243 18.2669C3.79803 18.4248 3.93607 18.6199 4.02645 18.8381C4.11683 19.0562 4.15725 19.2918 4.14475 19.5275C4.13225 19.7633 4.06715 19.9933 3.95422 20.2007L3.6642 20.73C2.04735 23.7026 5.29736 26.9545 8.27005 25.334L8.79933 25.0458C9.00668 24.9328 9.23667 24.8677 9.47245 24.8552C9.70823 24.8427 9.94382 24.8832 10.1619 24.9735C10.3801 25.0639 10.5752 25.202 10.7331 25.3776C10.8909 25.5532 11.0075 25.7619 11.0742 25.9883L11.2445 26.5666C12.1998 29.8111 16.8002 29.8111 17.7555 26.5666L17.9258 25.9883C17.9926 25.7619 18.1091 25.5532 18.2669 25.3776C18.4248 25.202 18.6199 25.0639 18.8381 24.9735C19.0562 24.8832 19.2918 24.8427 19.5275 24.8552C19.7633 24.8677 19.9933 24.9328 20.2007 25.0458L20.73 25.3358C23.7026 26.9545 26.9545 23.7008 25.334 20.73L25.0458 20.2007C24.9328 19.9933 24.8677 19.7633 24.8552 19.5275C24.8427 19.2918 24.8832 19.0562 24.9735 18.8381C25.0639 18.6199 25.202 18.4248 25.3776 18.2669C25.5532 18.1091 25.7619 17.9926 25.9883 17.9258L26.5666 17.7555C29.8111 16.8002 29.8111 12.1998 26.5666 11.2445L25.9883 11.0742C25.7619 11.0075 25.5532 10.8909 25.3776 10.7331C25.202 10.5752 25.0639 10.3801 24.9735 10.1619C24.8832 9.94382 24.8427 9.70823 24.8552 9.47245C24.8677 9.23667 24.9328 9.00668 25.0458 8.79933L25.3358 8.27005C26.9545 5.29736 23.7008 2.04735 20.73 3.66601L20.2007 3.95422C19.9933 4.06715 19.7633 4.13225 19.5275 4.14475C19.2918 4.15725 19.0562 4.11683 18.8381 4.02645C18.6199 3.93607 18.4248 3.79803 18.2669 3.62243C18.1091 3.44684 17.9926 3.23815 17.9258 3.01166L17.7555 2.43343ZM12.9828 2.9464C13.4287 1.43287 15.5713 1.43287 16.0172 2.9464L16.1875 3.52463C16.3308 4.01056 16.5809 4.45828 16.9197 4.83496C17.2585 5.21165 17.6772 5.50774 18.1453 5.70154C18.6134 5.89534 19.1189 5.98193 19.6248 5.95496C20.1307 5.92799 20.6241 5.78815 21.0689 5.54569L21.5964 5.25567C22.9812 4.50344 24.4966 6.01697 23.7425 7.40362L23.4543 7.9329C23.2122 8.37777 23.0727 8.87116 23.046 9.37693C23.0194 9.8827 23.1062 10.388 23.3001 10.8559C23.4941 11.3238 23.7903 11.7423 24.167 12.0808C24.5437 12.4194 24.9913 12.6694 25.4772 12.8125L26.0536 12.9828C27.5671 13.4287 27.5671 15.5713 26.0536 16.0172L25.4754 16.1875C24.9894 16.3308 24.5417 16.5809 24.165 16.9197C23.7884 17.2585 23.4923 17.6772 23.2985 18.1453C23.1047 18.6134 23.0181 19.1189 23.045 19.6248C23.072 20.1307 23.2118 20.6241 23.4543 21.0689L23.7443 21.5964C24.4966 22.9812 22.983 24.4966 21.5964 23.7425L21.0689 23.4543C20.624 23.2119 20.1304 23.0721 19.6244 23.0452C19.1184 23.0184 18.6129 23.1051 18.1448 23.2991C17.6767 23.4931 17.2579 23.7894 16.9193 24.1663C16.5806 24.5432 16.3306 24.9911 16.1875 25.4772L16.0172 26.0536C15.5713 27.5671 13.4287 27.5671 12.9828 26.0536L12.8125 25.4754C12.6692 24.9897 12.419 24.5422 12.0804 24.1657C11.7418 23.7892 11.3232 23.4933 10.8554 23.2995C10.3875 23.1057 9.88226 23.019 9.37659 23.0458C8.87092 23.0726 8.37765 23.2122 7.9329 23.4543L7.40362 23.7443C6.01878 24.4966 4.50344 22.983 5.25748 21.5964L5.54569 21.0689C5.78849 20.624 5.92861 20.1304 5.95575 19.6243C5.9829 19.1182 5.89638 18.6125 5.70256 18.1442C5.50874 17.6758 5.21252 17.2569 4.83565 16.918C4.45878 16.5791 4.01082 16.3289 3.52463 16.1857L2.9464 16.0153C1.43287 15.5694 1.43287 13.4269 2.9464 12.981L3.52463 12.8106C4.01006 12.6673 4.45729 12.4172 4.83359 12.0787C5.2099 11.7402 5.50575 11.3218 5.6995 10.8542C5.89325 10.3866 5.97999 9.8816 5.95338 9.37614C5.92676 8.87069 5.78747 8.37758 5.54569 7.9329L5.25567 7.40362C4.50344 6.01878 6.01697 4.50344 7.40362 5.25748L7.9329 5.54569C8.37765 5.78781 8.87092 5.92738 9.37659 5.95417C9.88226 5.98096 10.3875 5.89429 10.8554 5.70052C11.3232 5.50674 11.7418 5.21077 12.0804 4.83428C12.419 4.45778 12.6692 4.01031 12.8125 3.52463L12.9828 2.9464Z" fill="black"/>
</svg>
