<svg width="17" height="16" viewBox="0 0 17 16" fill="none" xmlns="http://www.w3.org/2000/svg">
<path d="M5.13956 4C4.86235 4 4.63762 4.22386 4.63762 4.5C4.63762 4.77614 4.86235 5 5.13956 5H11.1628C11.44 5 11.6648 4.77614 11.6648 4.5C11.6648 4.22386 11.44 4 11.1628 4H5.13956Z" fill="#2D2D2D"/>
<path d="M4.63762 6.5C4.63762 6.22386 4.86235 6 5.13956 6H11.1628C11.44 6 11.6648 6.22386 11.6648 6.5C11.6648 6.77614 11.44 7 11.1628 7H5.13956C4.86235 7 4.63762 6.77614 4.63762 6.5Z" fill="#2D2D2D"/>
<path d="M5.13956 8C4.86235 8 4.63762 8.22386 4.63762 8.5C4.63762 8.77614 4.86235 9 5.13956 9H11.1628C11.44 9 11.6648 8.77614 11.6648 8.5C11.6648 8.22386 11.44 8 11.1628 8H5.13956Z" fill="#2D2D2D"/>
<path d="M5.13956 10C4.86235 10 4.63762 10.2239 4.63762 10.5C4.63762 10.7761 4.86235 11 5.13956 11H8.15119C8.4284 11 8.65312 10.7761 8.65312 10.5C8.65312 10.2239 8.4284 10 8.15119 10H5.13956Z" fill="#2D2D2D"/>
<path d="M2.12793 2C2.12793 0.89543 3.02683 0 4.13568 0H12.1667C13.2755 0 14.1744 0.89543 14.1744 2V14C14.1744 15.1046 13.2755 16 12.1667 16H4.13568C3.02683 16 2.12793 15.1046 2.12793 14V2ZM12.1667 1H4.13568C3.58126 1 3.13181 1.44772 3.13181 2V14C3.13181 14.5523 3.58126 15 4.13568 15H12.1667C12.7211 15 13.1706 14.5523 13.1706 14V2C13.1706 1.44772 12.7211 1 12.1667 1Z" fill="#2D2D2D"/>
</svg>
