<svg width="43" height="45" viewBox="0 0 43 45" fill="none" xmlns="http://www.w3.org/2000/svg">
<rect width="43" height="45" rx="4" fill="#6CCA98"/>
<g clip-path="url(#clip0_488_1023)">
<path d="M20.0625 31.125C20.0625 31.125 18.625 31.125 18.625 29.6875C18.625 28.25 20.0625 23.9375 25.8125 23.9375C31.5625 23.9375 33 28.25 33 29.6875C33 31.125 31.5625 31.125 31.5625 31.125H20.0625ZM25.8125 22.5C26.9562 22.5 28.0531 22.0456 28.8619 21.2369C29.6706 20.4281 30.125 19.3312 30.125 18.1875C30.125 17.0438 29.6706 15.9469 28.8619 15.1381C28.0531 14.3294 26.9562 13.875 25.8125 13.875C24.6688 13.875 23.5719 14.3294 22.7631 15.1381C21.9544 15.9469 21.5 17.0438 21.5 18.1875C21.5 19.3312 21.9544 20.4281 22.7631 21.2369C23.5719 22.0456 24.6688 22.5 25.8125 22.5Z" fill="#006652"/>
<path fill-rule="evenodd" clip-rule="evenodd" d="M17.498 31.125C17.2849 30.6762 17.1786 30.1842 17.1875 29.6875C17.1875 27.7397 18.165 25.7344 19.9705 24.34C19.0693 24.0623 18.1304 23.9265 17.1875 23.9375C11.4375 23.9375 10 28.25 10 29.6875C10 31.125 11.4375 31.125 11.4375 31.125H17.498Z" fill="#006652"/>
<path d="M16.4688 22.5C17.4219 22.5 18.336 22.1214 19.0099 21.4474C19.6839 20.7735 20.0625 19.8594 20.0625 18.9062C20.0625 17.9531 19.6839 17.039 19.0099 16.3651C18.336 15.6911 17.4219 15.3125 16.4688 15.3125C15.5156 15.3125 14.6015 15.6911 13.9276 16.3651C13.2536 17.039 12.875 17.9531 12.875 18.9062C12.875 19.8594 13.2536 20.7735 13.9276 21.4474C14.6015 22.1214 15.5156 22.5 16.4688 22.5Z" fill="#006652"/>
</g>
<defs>
<clipPath id="clip0_488_1023">
<rect width="23" height="19" fill="white" transform="translate(10 13)"/>
</clipPath>
</defs>
</svg>
