<svg width="28" height="29" viewBox="0 0 28 29" fill="none" xmlns="http://www.w3.org/2000/svg">
<path d="M4.22654 29C3.13865 29 2.21766 28.6315 1.46355 27.8944C0.709449 27.1573 0.332397 26.2571 0.332397 25.1938V20.6625H5.04245V0L7.26768 2.175L9.4929 0L11.681 2.175L13.9063 0L16.1315 2.175L18.3567 0L20.5819 2.175L22.8072 0L25.0324 2.175L27.2576 0V25.1938C27.2576 26.2571 26.8806 27.1573 26.1264 27.8944C25.3723 28.6315 24.4513 29 23.3635 29H4.22654ZM23.3635 26.825C23.858 26.825 24.2597 26.674 24.5688 26.3719C24.8779 26.0698 25.0324 25.6771 25.0324 25.1938V3.625H7.26768V20.6625H21.6945V25.1938C21.6945 25.6771 21.8491 26.0698 22.1581 26.3719C22.4672 26.674 22.869 26.825 23.3635 26.825ZM9.23329 9.3525V7.1775H18.1342V9.3525H9.23329ZM9.23329 14.21V12.035H18.1342V14.21H9.23329ZM21.5833 9.3525C21.2866 9.3525 21.027 9.24375 20.8045 9.02625C20.5819 8.80875 20.4707 8.555 20.4707 8.265C20.4707 7.975 20.5819 7.72125 20.8045 7.50375C21.027 7.28625 21.2866 7.1775 21.5833 7.1775C21.88 7.1775 22.1396 7.28625 22.3621 7.50375C22.5846 7.72125 22.6959 7.975 22.6959 8.265C22.6959 8.555 22.5846 8.80875 22.3621 9.02625C22.1396 9.24375 21.88 9.3525 21.5833 9.3525ZM21.5833 14.0288C21.2866 14.0288 21.027 13.92 20.8045 13.7025C20.5819 13.485 20.4707 13.2313 20.4707 12.9413C20.4707 12.6513 20.5819 12.3975 20.8045 12.18C21.027 11.9625 21.2866 11.8538 21.5833 11.8538C21.88 11.8538 22.1396 11.9625 22.3621 12.18C22.5846 12.3975 22.6959 12.6513 22.6959 12.9413C22.6959 13.2313 22.5846 13.485 22.3621 13.7025C22.1396 13.92 21.88 14.0288 21.5833 14.0288ZM4.18945 26.825H19.4693V22.8375H2.55762V25.1938C2.55762 25.6771 2.71215 26.0698 3.02121 26.3719C3.33027 26.674 3.71968 26.825 4.18945 26.825Z" fill="#20B396"/>
</svg>
