<svg width="28" height="29" viewBox="0 0 28 29" fill="none" xmlns="http://www.w3.org/2000/svg">
<path d="M15.3573 29V25.7778H18.349V29H15.3573ZM12.3656 25.7778V17.7222H15.3573V25.7778H12.3656ZM24.3324 20.9444V14.5H27.3241V20.9444H24.3324ZM21.3407 14.5V11.2778H24.3324V14.5H21.3407ZM3.39055 17.7222V14.5H6.38224V17.7222H3.39055ZM0.398865 14.5V11.2778H3.39055V14.5H0.398865ZM13.8615 3.22222V0H16.8532V3.22222H13.8615ZM2.26867 7.65278H7.50413V2.01389H2.26867V7.65278ZM0.398865 9.66667V0H9.37393V9.66667H0.398865ZM2.26867 26.9861H7.50413V21.3472H2.26867V26.9861ZM0.398865 29V19.3333H9.37393V29H0.398865ZM20.2188 7.65278H25.4543V2.01389H20.2188V7.65278ZM18.349 9.66667V0H27.3241V9.66667H18.349ZM21.3407 29V24.1667H18.349V20.9444H24.3324V25.7778H27.3241V29H21.3407ZM15.3573 17.7222V14.5H21.3407V17.7222H15.3573ZM9.37393 17.7222V14.5H6.38224V11.2778H15.3573V14.5H12.3656V17.7222H9.37393ZM10.8698 9.66667V3.22222H13.8615V6.44444H16.8532V9.66667H10.8698ZM3.76452 6.04167V3.625H6.00828V6.04167H3.76452ZM3.76452 25.375V22.9583H6.00828V25.375H3.76452ZM21.7147 6.04167V3.625H23.9584V6.04167H21.7147Z" fill="#20B396"/>
</svg>
