<svg width="38" height="26" viewBox="0 0 38 26" fill="none" xmlns="http://www.w3.org/2000/svg">
<path d="M12.6599 25.3139C7.88191 25.3139 4.08499 25.3139 3.49465 25.255C1.71511 25.1204 0.993101 24.0985 0.844452 23.5139V23.3288V15.5525L1.51125 15.4642C1.54098 15.4642 4.76878 14.9932 4.76878 12.8146C4.76878 10.5477 1.4348 9.57203 1.40083 9.56362L0.844452 9.4038V2.60321C0.844452 0.996643 2.24175 0.41626 3.18461 0.41626H35.3777C36.8174 0.41626 37.446 1.75366 37.5734 2.46443V2.60321V9.58885L37.102 9.78232C35.9425 10.266 33.5726 11.6286 33.6448 12.7599C33.717 13.8913 35.8236 15.3044 37.1317 15.91L37.5564 16.1119V22.6896C37.5564 24.3172 35.7217 25.1204 35.5136 25.213L35.3734 25.2676H35.2205C34.4051 25.2761 21.7402 25.3139 12.6599 25.3139ZM2.33943 23.2111C2.41588 23.333 2.70893 23.6947 3.61357 23.762C4.92592 23.8629 24.6537 23.8041 35.0421 23.762C35.4201 23.5685 36.0147 23.1438 36.0147 22.7064V17.0792C34.8977 16.4946 32.2221 14.8922 32.0904 12.8735C31.9545 10.7706 34.817 9.17669 36.0147 8.60893V2.72097C35.968 2.54433 35.7811 1.97236 35.3437 1.97236H3.15063C2.85334 1.97236 2.34793 2.06909 2.34793 2.63686V8.31453C3.55411 8.77716 6.27226 10.123 6.27226 12.8398C6.27226 15.2918 3.98731 16.4694 2.34793 16.8689L2.33943 23.2111Z" fill="#00A887"/>
<path d="M12.6599 25.7346C7.01128 25.7346 4.00433 25.7346 3.46495 25.6757C1.44758 25.5201 0.61514 24.3131 0.441009 23.6233V23.5728L0.415527 23.3373V15.1909L1.44333 15.0521C1.46881 15.0521 4.33985 14.6316 4.33985 12.8147C4.33985 10.8759 1.30317 9.96747 1.27344 9.95906L0.424023 9.71513V2.60332C0.424023 0.693939 2.0719 0 3.18039 0H35.3735C37.0723 0 37.8283 1.56451 37.9812 2.39303V2.42668V2.60332V9.86232L37.2549 10.1651C35.8873 10.7329 34.0059 11.9904 34.0526 12.7348C34.0993 13.4792 35.7727 14.8376 37.2974 15.5358L37.9812 15.8512V22.6897C37.9812 24.5822 35.9171 25.4906 35.6835 25.5874L35.4669 25.6757H35.2333C34.6642 25.6883 21.7657 25.7346 12.6599 25.7346ZM1.25645 23.4425C1.38811 23.9219 2.00819 24.7378 3.52866 24.8514C3.87692 24.8766 5.74565 24.9103 12.6599 24.9103C21.787 24.9103 34.6854 24.8556 35.2291 24.8514H35.297L35.3607 24.8261C35.5433 24.7504 37.1487 24.0481 37.1487 22.6897V16.3811L36.9449 16.2886C35.6962 15.7082 33.3136 14.2362 33.2244 12.7895C33.1097 11.0231 36.8939 9.42494 36.9321 9.42494L37.1487 9.33241V2.62855V2.53182C37.0341 1.93462 36.5202 0.84955 35.3649 0.84955H3.1719C2.50511 0.84955 1.24796 1.21965 1.24796 2.62435V9.10531L1.50279 9.1768C1.65568 9.22307 5.17228 10.2661 5.17228 12.8273C5.17228 15.3886 1.59198 15.8807 1.55375 15.8849L1.24796 15.9269V23.3331L1.25645 23.4425ZM12.6472 24.2121C7.797 24.2121 4.15298 24.2121 3.57962 24.1574C2.52209 24.0775 2.12711 23.6065 2.00395 23.4088L1.94449 23.3121V16.5241L2.25877 16.4442C3.10819 16.2381 5.86881 15.3634 5.86881 12.8147C5.86881 10.346 3.32055 9.09689 2.20781 8.67212L1.94449 8.57118V2.60332C1.94449 1.95144 2.40742 1.53928 3.15491 1.52246H35.3565C35.8534 1.52246 36.2568 1.91779 36.431 2.58229V2.63276V8.84876L36.1974 8.96231C35.3013 9.38288 32.375 10.9264 32.5067 12.8315C32.6383 14.7367 35.3692 16.2676 36.2101 16.705L36.431 16.8185V22.7065C36.431 23.4803 35.4329 24.0271 35.2333 24.128L35.1441 24.1743H35.0422C28.9646 24.1911 19.5827 24.2205 12.626 24.2205L12.6472 24.2121ZM2.77692 23.0471C3.02046 23.2326 3.3191 23.3332 3.62634 23.3331C4.84101 23.4257 22.9719 23.3836 34.9318 23.3331C35.3267 23.1144 35.5943 22.8242 35.5943 22.6897V17.3232C34.3202 16.6209 31.8059 14.9933 31.67 12.8904C31.5298 10.674 34.2182 9.03801 35.5943 8.34407V2.75052C35.5221 2.51921 35.4074 2.35939 35.3395 2.35939H3.14642C2.75993 2.35939 2.75993 2.51921 2.75993 2.61173V8.01183C4.12325 8.5838 6.68425 10.0306 6.68425 12.8147C6.68425 15.1909 4.7136 16.5998 2.75993 17.1634L2.77692 23.0471Z" fill="#00A887"/>
<path d="M17.9306 18.6817C19.9233 14.2568 22.8722 10.3188 26.5692 7.14551C24.5735 11.5686 21.6251 15.5059 17.9306 18.6817Z" fill="#00A887"/>
<path d="M16.7839 20.2084L17.5484 18.5261C19.5689 14.0484 22.5535 10.0623 26.2931 6.84692L27.7032 5.63989L26.9472 7.32217C24.9286 11.8021 21.9437 15.79 18.2024 19.0056L16.7839 20.2084ZM25.2229 8.93715C22.8494 11.2732 20.8449 13.95 19.2769 16.8775C21.6526 14.5433 23.6573 11.8661 25.2229 8.93715Z" fill="#00A887"/>
<path d="M18.7461 12.3184C17.3998 12.3184 16.304 11.0567 16.304 9.47952C16.304 7.90239 17.3998 6.63647 18.7461 6.63647C20.0924 6.63647 21.1924 7.89818 21.1924 9.47952C21.1924 11.0609 20.0967 12.3184 18.7461 12.3184ZM18.7461 7.65425C17.9646 7.65425 17.3276 8.47016 17.3276 9.47952C17.3276 10.4889 17.9646 11.3048 18.7461 11.3048C19.5276 11.3048 20.1646 10.4847 20.1646 9.47952C20.1646 8.47436 19.5276 7.65005 18.7461 7.65005V7.65425Z" fill="#00A887"/>
<path d="M18.746 12.7306C17.1704 12.7306 15.8878 11.2712 15.8878 9.47957C15.8878 7.68795 17.1619 6.22437 18.746 6.22437C20.3302 6.22437 21.6086 7.68374 21.6086 9.47957C21.6086 11.2754 20.326 12.7306 18.746 12.7306ZM18.746 7.05289C17.6291 7.05289 16.7202 8.13795 16.7202 9.47957C16.7202 10.8212 17.6291 11.9062 18.746 11.9062C19.863 11.9062 20.7719 10.817 20.7719 9.47957C20.7719 8.14216 19.88 7.05289 18.746 7.05289ZM18.746 11.717C17.7352 11.717 16.9113 10.7118 16.9113 9.47957C16.9113 8.2473 17.7565 7.22952 18.746 7.22952C19.7356 7.22952 20.5808 8.23048 20.5808 9.46695C20.5808 10.7034 19.7611 11.717 18.746 11.717ZM18.746 8.06646C18.2067 8.06646 17.748 8.71413 17.748 9.47957C17.748 10.245 18.2067 10.8927 18.746 10.8927C19.2854 10.8927 19.7484 10.245 19.7484 9.47957C19.7484 8.71413 19.2897 8.07066 18.746 8.07066V8.06646Z" fill="#00A887"/>
<path d="M25.9236 18.875C24.5773 18.875 23.4815 17.6133 23.4815 16.0362C23.4815 14.459 24.5773 13.1931 25.9236 13.1931C27.27 13.1931 28.3657 14.4548 28.3657 16.0362C28.3657 17.6175 27.27 18.875 25.9236 18.875ZM25.9236 14.2109C25.1422 14.2109 24.5051 15.0268 24.5051 16.0362C24.5051 17.0455 25.1422 17.8614 25.9236 17.8614C26.7051 17.8614 27.3422 17.0413 27.3422 16.0362C27.3422 15.031 26.7051 14.2109 25.9236 14.2109Z" fill="#00A887"/>
<path d="M25.9236 19.2874C24.3479 19.2874 23.0652 17.8281 23.0652 16.0364C23.0652 14.2448 24.3394 12.7812 25.9236 12.7812C27.5077 12.7812 28.7818 14.2406 28.7818 16.0364C28.7818 17.8323 27.4992 19.2874 25.9236 19.2874ZM25.9236 13.6056C24.8066 13.6056 23.8977 14.6948 23.8977 16.0364C23.8977 17.3781 24.8066 18.4631 25.9236 18.4631C27.0405 18.4631 27.9494 17.3739 27.9494 16.0364C27.9494 14.699 27.0405 13.6056 25.9236 13.6056ZM25.9236 18.2739C24.9127 18.2739 24.0888 17.2687 24.0888 16.0364C24.0888 14.8042 24.9127 13.799 25.9236 13.799C26.9344 13.799 27.7583 14.8 27.7583 16.0364C27.7583 17.2729 26.9344 18.2739 25.9236 18.2739ZM25.9236 14.6233C25.3799 14.6233 24.9212 15.271 24.9212 16.0364C24.9212 16.8019 25.3799 17.4454 25.9236 17.4454C26.4672 17.4454 26.9259 16.8019 26.9259 16.0364C26.9259 15.271 26.4672 14.6233 25.9236 14.6233Z" fill="#00A887"/>
<path d="M12.1085 21.4448H11.0673V22.4752H12.1085V21.4448Z" fill="#00A887"/>
<path d="M12.524 22.8874H10.6468V21.0327H12.524V22.8874ZM11.4835 22.0463H11.6874V21.8402H11.4835V22.0463Z" fill="#00A887"/>
<path d="M12.1085 19.4136H11.0673V20.444H12.1085V19.4136Z" fill="#00A887"/>
<path d="M12.524 20.8559H10.6468V19.0054H12.524V20.8559ZM11.4835 20.0147H11.6874V19.8465H11.4835V20.0147Z" fill="#00A887"/>
<path d="M12.1085 17.3779H11.0673V18.4083H12.1085V17.3779Z" fill="#00A887"/>
<path d="M12.524 18.8247H10.6468V16.9658H12.524V18.8247ZM11.4835 17.9836H11.6874V17.7817H11.4835V17.9836Z" fill="#00A887"/>
<path d="M12.1085 15.3464H11.0673V16.3768H12.1085V15.3464Z" fill="#00A887"/>
<path d="M12.524 16.789H10.6468V14.9343H12.524V16.789ZM11.4835 15.9479H11.6874V15.7418H11.4835V15.9479Z" fill="#00A887"/>
<path d="M12.1085 13.311H11.0673V14.3414H12.1085V13.311Z" fill="#00A887"/>
<path d="M12.524 14.7578H10.6468V12.8989H12.524V14.7578ZM11.4835 13.9167H11.6874V13.7148H11.4835V13.9167Z" fill="#00A887"/>
<path d="M12.1085 11.2795H11.0673V12.3099H12.1085V11.2795Z" fill="#00A887"/>
<path d="M12.524 12.7221H10.6468V10.8674H12.524V12.7221ZM11.4835 11.881H11.6874V11.6749H11.4835V11.881Z" fill="#00A887"/>
<path d="M12.1085 9.24414H11.0673V10.2745H12.1085V9.24414Z" fill="#00A887"/>
<path d="M12.524 10.6909H10.6468V8.83618H12.524V10.6909ZM11.4835 9.84975H11.6874V9.64367H11.4835V9.84975Z" fill="#00A887"/>
<path d="M12.1085 7.21289H11.0673V8.24328H12.1085V7.21289Z" fill="#00A887"/>
<path d="M12.524 8.65538H10.6468V6.80908H12.524V8.65538ZM11.4835 7.81424H11.6874V7.60816H11.4835V7.81424Z" fill="#00A887"/>
<path d="M12.1085 5.17725H11.0673V6.20764H12.1085V5.17725Z" fill="#00A887"/>
<path d="M12.524 6.62399H10.6468V4.76929H12.524V6.62399ZM11.4835 5.78286H11.6874V5.57678H11.4835V5.78286Z" fill="#00A887"/>
<path d="M12.1085 3.146H11.0673V4.17639H12.1085V3.146Z" fill="#00A887"/>
<path d="M12.524 4.58835H10.6468V2.73364H12.524V4.58835ZM11.4835 3.74721H11.6874V3.54534H11.4835V3.74721Z" fill="#00A887"/>
<path d="M12.1085 1.18188H11.0673V2.21228H12.1085V1.18188Z" fill="#00A887"/>
<path d="M12.524 2.62844H10.6468V0.769531H12.524V2.62844ZM11.4835 1.78731H11.6874V1.58543H11.4835V1.78731Z" fill="#00A887"/>
<path d="M12.1085 23.4761H11.0673V24.5065H12.1085V23.4761Z" fill="#00A887"/>
<path d="M12.524 24.9228H10.6468V23.0681H12.524V24.9228ZM11.4835 24.0817H11.6874V23.8756H11.4835V24.0817Z" fill="#00A887"/>
</svg>
