<svg width="33" height="40" viewBox="0 0 33 40" fill="none" xmlns="http://www.w3.org/2000/svg">
<path d="M16.2964 19.5C17.2604 19.5 18.0831 19.1583 18.7645 18.475C19.446 17.7917 19.7867 16.9667 19.7867 16C19.7867 15.0333 19.446 14.2083 18.7645 13.525C18.0831 12.8417 17.2604 12.5 16.2964 12.5C15.3324 12.5 14.5097 12.8417 13.8282 13.525C13.1468 14.2083 12.8061 15.0333 12.8061 16C12.8061 16.9667 13.1468 17.7917 13.8282 18.475C14.5097 19.1583 15.3324 19.5 16.2964 19.5ZM16.2964 36.05C20.7174 32.0167 23.9834 28.3583 26.0942 25.075C28.205 21.7917 29.2604 18.9 29.2604 16.4C29.2604 12.4667 28.0055 9.25 25.4958 6.75C22.9861 4.25 19.9196 3 16.2964 3C12.6731 3 9.60663 4.25 7.09693 6.75C4.58723 9.25 3.33239 12.4667 3.33239 16.4C3.33239 18.9 4.41272 21.7917 6.57338 25.075C8.73405 28.3583 11.975 32.0167 16.2964 36.05ZM16.2964 40C10.9446 35.4333 6.94735 31.1917 4.30469 27.275C1.66203 23.3583 0.340698 19.7333 0.340698 16.4C0.340698 11.4 1.94458 7.41667 5.15233 4.45C8.36009 1.48333 12.0748 0 16.2964 0C20.518 0 24.2327 1.48333 27.4404 4.45C30.6482 7.41667 32.2521 11.4 32.2521 16.4C32.2521 19.7333 30.9307 23.3583 28.2881 27.275C25.6454 31.1917 21.6482 35.4333 16.2964 40Z" fill="#00A887"/>
</svg>
